solid flat_terrain
   facet normal 3.700743e-019 1.000000e+000 0.000000e+000
      outer loop
         vertex 3.000000e+002 1.000000e+000 2.000000e+002
         vertex 3.000000e+002 1.000000e+000 -2.000000e+002
         vertex -1.000000e+002 1.000000e+000 2.000000e+002
      endloop
   endfacet
   facet normal 3.700743e-019 1.000000e+000 0.000000e+000
      outer loop
         vertex -1.000000e+002 1.000000e+000 2.000000e+002
         vertex 3.000000e+002 1.000000e+000 -2.000000e+002
         vertex -1.000000e+002 1.000000e+000 -2.000000e+002
      endloop
   endfacet
   facet normal 1.000000e+000 0.000000e+000 0.000000e+000
      outer loop
         vertex 3.000000e+002 0.000000e+000 2.000000e+002
         vertex 3.000000e+002 0.000000e+000 -2.000000e+002
         vertex 3.000000e+002 1.000000e+000 2.000000e+002
      endloop
   endfacet
   facet normal 1.000000e+000 0.000000e+000 0.000000e+000
      outer loop
         vertex 3.000000e+002 1.000000e+000 2.000000e+002
         vertex 3.000000e+002 0.000000e+000 -2.000000e+002
         vertex 3.000000e+002 1.000000e+000 -2.000000e+002
      endloop
   endfacet
   facet normal 0.000000e+000 -1.000000e+000 0.000000e+000
      outer loop
         vertex -1.000000e+002 0.000000e+000 2.000000e+002
         vertex -1.000000e+002 0.000000e+000 -2.000000e+002
         vertex 3.000000e+002 0.000000e+000 2.000000e+002
      endloop
   endfacet
   facet normal 0.000000e+000 -1.000000e+000 0.000000e+000
      outer loop
         vertex 3.000000e+002 0.000000e+000 2.000000e+002
         vertex -1.000000e+002 0.000000e+000 -2.000000e+002
         vertex 3.000000e+002 0.000000e+000 -2.000000e+002
      endloop
   endfacet
   facet normal -1.000000e+000 0.000000e+000 0.000000e+000
      outer loop
         vertex -1.000000e+002 1.000000e+000 2.000000e+002
         vertex -1.000000e+002 1.000000e+000 -2.000000e+002
         vertex -1.000000e+002 -1.221245e-014 2.000000e+002
      endloop
   endfacet
   facet normal -1.000000e+000 0.000000e+000 0.000000e+000
      outer loop
         vertex -1.000000e+002 -1.221245e-014 2.000000e+002
         vertex -1.000000e+002 1.000000e+000 -2.000000e+002
         vertex -1.000000e+002 -1.221245e-014 -2.000000e+002
      endloop
   endfacet
   facet normal 0.000000e+000 0.000000e+000 -1.000000e+000
      outer loop
         vertex 3.000000e+002 0.000000e+000 -2.000000e+002
         vertex -1.000000e+002 -1.221245e-014 -2.000000e+002
         vertex 3.000000e+002 1.000000e+000 -2.000000e+002
      endloop
   endfacet
   facet normal 0.000000e+000 0.000000e+000 -1.000000e+000
      outer loop
         vertex 3.000000e+002 1.000000e+000 -2.000000e+002
         vertex -1.000000e+002 -1.221245e-014 -2.000000e+002
         vertex -1.000000e+002 1.000000e+000 -2.000000e+002
      endloop
   endfacet
   facet normal 0.000000e+000 0.000000e+000 1.000000e+000
      outer loop
         vertex -1.000000e+002 -1.221245e-014 2.000000e+002
         vertex 3.000000e+002 0.000000e+000 2.000000e+002
         vertex -1.000000e+002 1.000000e+000 2.000000e+002
      endloop
   endfacet
   facet normal 0.000000e+000 0.000000e+000 1.000000e+000
      outer loop
         vertex -1.000000e+002 1.000000e+000 2.000000e+002
         vertex 3.000000e+002 0.000000e+000 2.000000e+002
         vertex 3.000000e+002 1.000000e+000 2.000000e+002
      endloop
   endfacet
endsolid